<svg width="1200" height="200" viewBox="0 0 1200 200" fill="none" xmlns="http://www.w3.org/2000/svg">
<rect width="1200" height="200" fill="#1E1E1E"/>
<rect width="1200" height="200" fill="#0E1A2C"/>
<path d="M392 86V58H400V70H412V58H420V86H412V74H400V86H392ZM428 86V82H424V70H428V66H448V70H452V78H432V82H448V86H428ZM432 74H444V70H432V74ZM460 90V86H476V82H460V78H456V66H464V78H476V66H484V86H480V90H460ZM496 78V58H508V70H504V78H496ZM496 86V82H504V86H496ZM556 86V82H564V62H556V58H580V62H572V82H580V86H556ZM592 70V66H596V58H604V66H600V70H592ZM616 86V66H640V70H644V86H636V70H632V86H624V70H620V86H616ZM680 86V66H684V62H688V58H700V62H704V66H708V86H700V78H688V86H680ZM688 74H700V66H696V62H692V66H688V74ZM716 90V86H732V82H716V78H712V66H720V78H732V66H740V86H736V90H716ZM748 86V82H756V62H752V58H764V82H772V86H748ZM780 86V82H776V78H780V74H796V70H780V66H800V70H804V86H780ZM784 82H796V78H784V82Z" fill="white"/>
<path d="M382.5 139.5V137H385V134.5H387.5V132H390V129.5H387.5V127H385V124.5H382.5V122H387.5V124.5H390V127H392.5V129.5H395V132H392.5V134.5H390V137H387.5V139.5H382.5ZM420 139.5V122H437.5V124.5H425V129.5H435V132H425V139.5H420ZM442.5 139.5V137H440V127H445V137H452.5V127H457.5V139.5H442.5ZM462.5 139.5V137H467.5V124.5H465V122H472.5V137H477.5V139.5H462.5ZM482.5 139.5V137H487.5V124.5H485V122H492.5V137H497.5V139.5H482.5ZM522.5 139.5V137H520V134.5H525V137H532.5V132H522.5V129.5H520V124.5H522.5V122H535V124.5H537.5V127H532.5V124.5H525V129.5H535V132H537.5V137H535V139.5H522.5ZM547.5 139.5V129.5H542.5V127H547.5V122H552.5V127H557.5V129.5H552.5V139.5H547.5ZM562.5 139.5V137H560V134.5H562.5V132H572.5V129.5H562.5V127H575V129.5H577.5V139.5H562.5ZM565 137H572.5V134.5H565V137ZM582.5 139.5V137H580V129.5H582.5V127H597.5V129.5H585V137H597.5V139.5H582.5ZM600 139.5V122H605V132H610V129.5H612.5V127H617.5V129.5H615V132H612.5V134.5H615V137H617.5V139.5H612.5V137H610V134.5H605V139.5H600ZM640 139.5V122H652.5V124.5H655V127H657.5V134.5H655V137H652.5V139.5H640ZM645 137H650V134.5H652.5V127H650V124.5H645V137ZM662.5 139.5V137H660V129.5H662.5V127H675V129.5H677.5V134.5H665V137H675V139.5H662.5ZM665 132H672.5V129.5H665V132ZM687.5 139.5V137H685V134.5H682.5V127H687.5V134.5H692.5V127H697.5V134.5H695V137H692.5V139.5H687.5ZM702.5 139.5V137H700V129.5H702.5V127H715V129.5H717.5V134.5H705V137H715V139.5H702.5ZM705 132H712.5V129.5H705V132ZM722.5 139.5V137H727.5V124.5H725V122H732.5V137H737.5V139.5H722.5ZM742.5 139.5V137H740V129.5H742.5V127H755V129.5H757.5V137H755V139.5H742.5ZM745 137H752.5V129.5H745V137ZM760 142V127H775V129.5H777.5V134.5H775V137H765V142H760ZM765 134.5H772.5V129.5H765V134.5ZM782.5 139.5V137H780V129.5H782.5V127H795V129.5H797.5V134.5H785V137H795V139.5H782.5ZM785 132H792.5V129.5H785V132ZM807.5 129.5H810V132H807.5V139.5H802.5V127H807.5V129.5ZM817.5 127V129.5H810V127H817.5Z" fill="#E8C96A"/>
<rect width="1200" height="10" fill="url(#paint0_linear_0_1)"/>
<defs>
<linearGradient id="paint0_linear_0_1" x1="0" y1="5" x2="1200" y2="5" gradientUnits="userSpaceOnUse">
<stop stop-color="#E8C96A"/>
<stop offset="0.485577" stop-color="#E8C96A"/>
<stop offset="1" stop-color="#8A6E30"/>
</linearGradient>
</defs>
</svg>
