<svg width="1200" height="200" viewBox="0 0 1200 200" fill="none" xmlns="http://www.w3.org/2000/svg">
<rect width="1200" height="200" fill="#1E1E1E"/>
<rect width="1200" height="200" fill="#0E1A2C"/>
<path d="M392 79V51H400V63H412V51H420V79H412V67H400V79H392ZM428 79V75H424V63H428V59H448V63H452V71H432V75H448V79H428ZM432 67H444V63H432V67ZM460 83V79H476V75H460V71H456V59H464V71H476V59H484V79H480V83H460ZM496 71V51H508V63H504V71H496ZM496 79V75H504V79H496ZM556 79V75H564V55H556V51H580V55H572V75H580V79H556ZM592 63V59H596V51H604V59H600V63H592ZM616 79V59H640V63H644V79H636V63H632V79H624V63H620V79H616ZM680 79V59H684V55H688V51H700V55H704V59H708V79H700V71H688V79H680ZM688 67H700V59H696V55H692V59H688V67ZM716 83V79H732V75H716V71H712V59H720V71H732V59H740V79H736V83H716ZM748 79V75H756V55H752V51H764V75H772V79H748ZM780 79V75H776V71H780V67H796V63H780V59H800V63H804V79H780ZM784 75H796V71H784V75Z" fill="white"/>
<path d="M422.578 140.248L412.466 135.896V132.952L424.626 138.68V142.04L412.466 147.64V144.632L422.578 140.248ZM457.749 138.584V140.92H450.645V151H447.861V128.6H458.549V130.936H450.645V138.584H457.749ZM473.494 150.264C472.79 150.755 471.937 151 470.934 151H469.846C468.118 151 466.827 150.595 465.974 149.784C465.142 148.973 464.726 147.672 464.726 145.88V135H467.446V146.52C467.446 147.16 467.627 147.672 467.99 148.056C468.374 148.419 468.886 148.6 469.526 148.6H471.254C471.937 148.6 472.438 148.429 472.758 148.088C473.099 147.747 473.291 147.363 473.334 146.936V135H476.054V151H473.494V150.264ZM488.695 151C487.97 151 487.33 150.744 486.775 150.232C486.242 149.72 485.975 148.909 485.975 147.8V131H481.271V128.6H488.695V147.64C488.695 147.981 488.781 148.227 488.951 148.376C489.122 148.525 489.41 148.6 489.815 148.6H494.071V151H488.695ZM505.977 151C505.251 151 504.611 150.744 504.057 150.232C503.523 149.72 503.257 148.909 503.257 147.8V131H498.553V128.6H505.977V147.64C505.977 147.981 506.062 148.227 506.233 148.376C506.403 148.525 506.691 148.6 507.097 148.6H511.353V151H505.977ZM544.923 145.56C544.923 147.373 544.422 148.739 543.419 149.656C542.438 150.552 541.019 151 539.163 151H534.619V148.568H539.483C540.272 148.568 540.912 148.333 541.403 147.864C541.894 147.395 542.139 146.829 542.139 146.168V142.84C542.139 142.2 541.968 141.688 541.627 141.304C541.307 140.899 540.816 140.696 540.155 140.696H539.195C537.616 140.696 536.368 140.237 535.451 139.32C534.534 138.381 534.075 137.027 534.075 135.256V134.04C534.075 132.227 534.566 130.872 535.547 129.976C536.55 129.059 537.979 128.6 539.835 128.6H544.411V131.032H539.515C538.726 131.032 538.086 131.267 537.595 131.736C537.104 132.205 536.859 132.771 536.859 133.432V135.864C536.859 136.525 537.072 137.08 537.499 137.528C537.926 137.955 538.48 138.168 539.163 138.168H540.123C541.638 138.168 542.811 138.605 543.643 139.48C544.496 140.355 544.923 141.677 544.923 143.448V145.56ZM557.98 151C556.892 151 556.06 150.648 555.484 149.944C554.908 149.24 554.62 148.312 554.62 147.16V137.4H551.58V135H554.62V131.16H557.34V135H562.012V137.4H557.34V147.32C557.34 147.789 557.458 148.12 557.692 148.312C557.927 148.504 558.29 148.6 558.78 148.6H562.012V151H557.98ZM578.782 151C578.504 151 578.195 150.915 577.854 150.744C577.534 150.573 577.256 150.339 577.022 150.04C576.531 150.68 575.88 151 575.07 151H572.222C570.6 151 569.416 150.68 568.67 150.04C567.944 149.379 567.582 148.259 567.582 146.68V146.04C567.582 142.733 569.139 141.08 572.254 141.08H576.222V139.48C576.222 138.819 576.019 138.307 575.614 137.944C575.208 137.581 574.611 137.4 573.822 137.4H568.862V135H573.502C575.358 135 576.723 135.405 577.598 136.216C578.494 137.027 578.942 138.328 578.942 140.12V147.8C578.942 148.12 579.059 148.365 579.294 148.536C579.55 148.685 579.966 148.76 580.542 148.76V151H578.782ZM574.75 148.6C575.39 148.6 575.795 148.451 575.966 148.152C576.136 147.853 576.222 147.469 576.222 147V143.48H572.222C571.667 143.48 571.208 143.661 570.846 144.024C570.483 144.387 570.302 144.845 570.302 145.4V147C570.302 147.555 570.43 147.96 570.686 148.216C570.942 148.472 571.347 148.6 571.902 148.6H574.75ZM591.999 151C590.121 151 588.745 150.605 587.871 149.816C586.996 149.005 586.559 147.693 586.559 145.88V140.12C586.559 138.328 586.996 137.027 587.871 136.216C588.767 135.405 590.143 135 591.999 135H596.127V137.4H591.679C590.889 137.4 590.292 137.581 589.887 137.944C589.481 138.307 589.279 138.819 589.279 139.48V146.52C589.279 147.181 589.481 147.693 589.887 148.056C590.292 148.419 590.889 148.6 591.679 148.6H596.127V151H591.999ZM605.792 144.152V151H603.072V128.6H605.792V140.696L610.816 135H614.24L608.672 141.304L614.688 151H611.328L606.624 143.192L605.792 144.152ZM649.219 145.944C649.219 147.779 648.792 149.08 647.939 149.848C647.107 150.616 645.72 151 643.779 151H637.187V128.6H643.395C645.315 128.6 646.765 128.995 647.747 129.784C648.728 130.552 649.219 131.821 649.219 133.592V145.944ZM646.435 133.304C646.435 132.6 646.221 132.045 645.795 131.64C645.368 131.213 644.803 131 644.099 131H639.971V148.6H644.067C644.877 148.6 645.475 148.419 645.859 148.056C646.243 147.672 646.435 147.075 646.435 146.264V133.304ZM660.292 151C658.414 151 657.038 150.605 656.164 149.816C655.289 149.005 654.852 147.693 654.852 145.88V140.12C654.852 138.285 655.246 136.973 656.036 136.184C656.825 135.395 658.137 135 659.972 135H661.476C662.99 135 664.132 135.427 664.9 136.28C665.689 137.112 666.084 138.339 666.084 139.96V144.12H657.572V146.52C657.572 147.181 657.774 147.693 658.18 148.056C658.585 148.419 659.182 148.6 659.972 148.6H665.06V151H660.292ZM663.428 139.32C663.428 138.765 663.246 138.307 662.884 137.944C662.521 137.581 662.062 137.4 661.508 137.4H659.652C658.884 137.4 658.34 137.581 658.02 137.944C657.721 138.285 657.572 138.797 657.572 139.48V141.72H663.428V139.32ZM671.173 135H674.117L677.861 148.792L681.509 135H684.357L679.749 151H675.813L671.173 135ZM694.854 151C692.977 151 691.601 150.605 690.726 149.816C689.852 149.005 689.414 147.693 689.414 145.88V140.12C689.414 138.285 689.809 136.973 690.598 136.184C691.388 135.395 692.7 135 694.534 135H696.038C697.553 135 698.694 135.427 699.462 136.28C700.252 137.112 700.646 138.339 700.646 139.96V144.12H692.134V146.52C692.134 147.181 692.337 147.693 692.742 148.056C693.148 148.419 693.745 148.6 694.534 148.6H699.622V151H694.854ZM697.99 139.32C697.99 138.765 697.809 138.307 697.446 137.944C697.084 137.581 696.625 137.4 696.07 137.4H694.214C693.446 137.4 692.902 137.581 692.582 137.944C692.284 138.285 692.134 138.797 692.134 139.48V141.72H697.99V139.32ZM713.352 151C712.626 151 711.986 150.744 711.432 150.232C710.898 149.72 710.632 148.909 710.632 147.8V131H705.928V128.6H713.352V147.64C713.352 147.981 713.437 148.227 713.608 148.376C713.778 148.525 714.066 148.6 714.472 148.6H718.728V151H713.352ZM735.561 145.88C735.561 147.672 735.113 148.973 734.217 149.784C733.342 150.595 731.977 151 730.121 151H729.065C727.209 151 725.833 150.595 724.937 149.784C724.062 148.973 723.625 147.672 723.625 145.88V140.12C723.625 138.328 724.062 137.027 724.937 136.216C725.833 135.405 727.209 135 729.065 135H730.121C731.977 135 733.342 135.405 734.217 136.216C735.113 137.027 735.561 138.328 735.561 140.12V145.88ZM732.841 139.48C732.841 138.819 732.638 138.307 732.233 137.944C731.827 137.581 731.23 137.4 730.441 137.4H728.745C727.955 137.4 727.358 137.581 726.953 137.944C726.547 138.307 726.345 138.819 726.345 139.48V146.52C726.345 147.181 726.547 147.693 726.953 148.056C727.358 148.419 727.955 148.6 728.745 148.6H730.441C731.23 148.6 731.827 148.419 732.233 148.056C732.638 147.693 732.841 147.181 732.841 146.52V139.48ZM743.594 135V135.768C744.255 135.256 745.109 135 746.154 135H747.306C749.183 135 750.559 135.405 751.434 136.216C752.309 137.005 752.746 138.307 752.746 140.12V145.88C752.746 147.672 752.298 148.973 751.402 149.784C750.527 150.595 749.162 151 747.306 151H743.754V156.44H741.034V135H743.594ZM745.834 137.4C745.13 137.4 744.607 137.592 744.266 137.976C743.925 138.339 743.754 138.733 743.754 139.16V148.6H747.626C748.415 148.6 749.013 148.419 749.418 148.056C749.823 147.693 750.026 147.181 750.026 146.52V139.48C750.026 138.819 749.823 138.307 749.418 137.944C749.013 137.581 748.415 137.4 747.626 137.4H745.834ZM763.979 151C762.102 151 760.726 150.605 759.851 149.816C758.977 149.005 758.539 147.693 758.539 145.88V140.12C758.539 138.285 758.934 136.973 759.723 136.184C760.513 135.395 761.825 135 763.659 135H765.163C766.678 135 767.819 135.427 768.587 136.28C769.377 137.112 769.771 138.339 769.771 139.96V144.12H761.259V146.52C761.259 147.181 761.462 147.693 761.867 148.056C762.273 148.419 762.87 148.6 763.659 148.6H768.747V151H763.979ZM767.115 139.32C767.115 138.765 766.934 138.307 766.571 137.944C766.209 137.581 765.75 137.4 765.195 137.4H763.339C762.571 137.4 762.027 137.581 761.707 137.944C761.409 138.285 761.259 138.797 761.259 139.48V141.72H767.115V139.32ZM778.349 148.6V137.4H776.013V135H780.909V135.864C781.613 135.288 782.466 135 783.469 135H786.765V137.56H783.149C782.466 137.56 781.954 137.784 781.613 138.232C781.271 138.659 781.09 139.096 781.069 139.544V148.6H784.557V151H776.013V148.6H778.349Z" fill="#E8C96A"/>
<rect width="1200" height="10" fill="url(#paint0_linear_0_1)"/>
<defs>
<linearGradient id="paint0_linear_0_1" x1="0" y1="5" x2="1200" y2="5" gradientUnits="userSpaceOnUse">
<stop stop-color="#E8C96A"/>
<stop offset="0.485577" stop-color="#E8C96A"/>
<stop offset="1" stop-color="#8A6E30"/>
</linearGradient>
</defs>
</svg>
